<svg xmlns="http://www.w3.org/2000/svg" viewBox="0 0 24 24" width="24" height="24">
  <defs>
    <linearGradient id="happyBlue" x1="0" y1="0" x2="1" y2="1">
      <stop offset="0" stop-color="#5BBEFF"/>
      <stop offset="1" stop-color="#2479B9"/>
    </linearGradient>
  </defs>
  <ellipse cx="12" cy="19" rx="8" ry="2.6" fill="#2C3E50" opacity="0.14"/>
  <path d="M6 6.5 C7.8 3.8 10.1 2.5 12 2.5 C16.9 2.5 21 6.6 21 11.7 C21 16.8 16.9 21 12 21 C7.1 21 3 16.8 3 11.7 C3 9.9 3.6 8.2 4.7 6.9" fill="url(#happyBlue)" stroke="#1E5F92" stroke-width="1.8"/>
  <path d="M8.2 8.9 C8.8 8 9.4 7.6 10.3 7.6" stroke="#EAF8FF" stroke-width="1.7" fill="none" stroke-linecap="round"/>
  <path d="M13.7 7.6 C14.6 7.6 15.2 8 15.8 8.9" stroke="#EAF8FF" stroke-width="1.7" fill="none" stroke-linecap="round"/>
  <circle cx="9.1" cy="10.5" r="1.4" fill="#FFFFFF"/>
  <circle cx="14.9" cy="10.5" r="1.4" fill="#FFFFFF"/>
  <path d="M7.2 13.7 C8.6 16.3 11.1 17.5 14 17.3 C15.9 17.2 17 16.4 17.9 15" fill="none" stroke="#FFFFFF" stroke-width="2.3" stroke-linecap="round"/>
  <circle cx="7" cy="13.7" r="1.3" fill="#FFD2D2" opacity="0.7"/>
  <circle cx="17" cy="13.7" r="1.3" fill="#FFD2D2" opacity="0.7"/>
</svg>
