<svg xmlns="http://www.w3.org/2000/svg" viewBox="0 0 300 80" width="300" height="80">
  <defs>
    <linearGradient id="logoGold" x1="0" y1="0" x2="0" y2="1">
      <stop offset="0" stop-color="#FFF4B0"/>
      <stop offset="0.45" stop-color="#F1C40F"/>
      <stop offset="1" stop-color="#C98C09"/>
    </linearGradient>
    <linearGradient id="logoRed" x1="0" y1="0" x2="0" y2="1">
      <stop offset="0" stop-color="#FF8370"/>
      <stop offset="1" stop-color="#D74435"/>
    </linearGradient>
    <filter id="logoShadow" x="-8%" y="-12%" width="120%" height="140%">
      <feDropShadow dx="0" dy="4" stdDeviation="3" flood-color="#2C3E50" flood-opacity="0.38"/>
    </filter>
  </defs>
  <g filter="url(#logoShadow)">
    <g transform="translate(10 9) rotate(-2 140 30)">
      <rect x="18" y="12" width="260" height="18" rx="9" fill="#FFF5E4" opacity="0.78"/>
      <text x="150" y="34" text-anchor="middle" font-family="Fredoka One, cursive, sans-serif" font-size="34" font-weight="900" fill="url(#logoGold)" stroke="#2C3E50" stroke-width="3" letter-spacing="2">COMPTA</text>
      <text x="150" y="66" text-anchor="middle" font-family="Fredoka One, cursive, sans-serif" font-size="39" font-weight="900" fill="url(#logoRed)" stroke="#2C3E50" stroke-width="3" letter-spacing="3">PANIC</text>
      <text x="150" y="50" text-anchor="middle" font-family="Fredoka One, cursive, sans-serif" font-size="24" font-weight="900" fill="#FFF8E7" stroke="#2C3E50" stroke-width="2">-</text>
      <path d="M42 9 L58 9 L54 22 L38 22 Z" fill="#FFFFFF" stroke="#E0D8C8" stroke-width="1.3" transform="rotate(-11 48 15)"/>
      <path d="M235 54 L252 54 L248 69 L231 69 Z" fill="#FFFFFF" stroke="#E0D8C8" stroke-width="1.3" transform="rotate(9 242 61)"/>
      <path d="M74 58 C102 72 198 74 229 57" stroke="#F1C40F" stroke-width="4" opacity="0.45" fill="none" stroke-linecap="round"/>
      <circle cx="37" cy="50" r="4" fill="#E74C3C" opacity="0.2"/>
      <circle cx="267" cy="24" r="3.5" fill="#F1C40F" opacity="0.28"/>
    </g>
  </g>
</svg>
